<?xml version="1.0" standalone="no"?><!DOCTYPE svg PUBLIC "-//W3C//DTD SVG 1.1//EN" "http://www.w3.org/Graphics/SVG/1.1/DTD/svg11.dtd"><svg t="1739858465232" class="icon" viewBox="0 0 1024 1024" version="1.1" xmlns="http://www.w3.org/2000/svg" p-id="3318" width="32" height="32" xmlns:xlink="http://www.w3.org/1999/xlink"><path d="M248.622489 186.182009h77.242164C351.720647 186.182009 372.363552 207.011095 372.363552 232.727453a46.545444 46.545444 0 0 1-46.754899 46.545444H139.869059A46.778171 46.778171 0 0 1 93.090888 232.517998V46.778404C93.090888 20.992228 113.919974 0.000233 139.636332 0.000233c25.879267 0 46.545444 20.829086 46.545444 46.498898v70.493075A510.60352 510.60352 0 0 1 511.999884 0.000233c282.763572 0 511.999884 229.236312 511.999883 511.999883s-229.236312 511.999884-511.999883 511.999884S0 794.763688 0 512.000116a46.545444 46.545444 0 0 1 93.090888 0c0 231.354129 187.554866 418.908996 418.908996 418.908996s418.908996-187.554866 418.908995-418.908996S743.354013 93.091121 511.999884 93.091121a417.582451 417.582451 0 0 0-263.377395 93.090888z" fill="#2c2c2c" p-id="3319"></path></svg>