<?xml version="1.0" standalone="no"?><!DOCTYPE svg PUBLIC "-//W3C//DTD SVG 1.1//EN" "http://www.w3.org/Graphics/SVG/1.1/DTD/svg11.dtd"><svg t="1740383761645" class="icon" viewBox="0 0 1024 1024" version="1.1" xmlns="http://www.w3.org/2000/svg" p-id="3707" xmlns:xlink="http://www.w3.org/1999/xlink" width="32" height="32"><path d="M0 0m273.066667 0l477.866666 0q273.066667 0 273.066667 273.066667l0 477.866666q0 273.066667-273.066667 273.066667l-477.866666 0q-273.066667 0-273.066667-273.066667l0-477.866666q0-273.066667 273.066667-273.066667Z" fill="#000000" fill-opacity=".1" p-id="3708"></path><path d="M489.2416 334.011733h118.468267c6.570667 0 13.0816 1.322667 19.157333 3.874134 6.075733 2.56 11.5968 6.306133 16.238933 11.025066 4.650667 4.718933 8.337067 10.325333 10.8544 16.494934 2.517333 6.1696 3.8144 12.782933 3.8144 19.456a18.747733 18.747733 0 0 0 5.3248 13.0816 18.193067 18.193067 0 0 0 12.8768 5.418666 17.954133 17.954133 0 0 0 12.8768-5.418666 18.517333 18.517333 0 0 0 5.3248-13.073067c0-23.296-9.105067-45.636267-25.326933-62.114133a85.802667 85.802667 0 0 0-61.141333-25.719467H489.2416a17.9712 17.9712 0 0 0-12.868267 5.410133 18.5088 18.5088 0 0 0-5.333333 13.073067 18.756267 18.756267 0 0 0 5.333333 13.0816 18.193067 18.193067 0 0 0 12.868267 5.410133z m34.935467 32.366934l-40.234667-82.2016a18.295467 18.295467 0 0 0-10.496-9.301334 17.9456 17.9456 0 0 0-13.909333 0.9728 18.4064 18.4064 0 0 0-9.156267 10.666667c-1.536 4.650667-1.194667 9.728 0.955733 14.122667l42.120534 86.058666c2.449067 5.000533 6.229333 9.216 10.9056 12.16s10.069333 4.5056 15.581866 4.5056h151.3472c6.570667 0 13.0816 1.314133 19.157334 3.8656 6.075733 2.56 11.588267 6.306133 16.238933 11.025067 4.650667 4.718933 8.337067 10.325333 10.8544 16.494933 2.517333 6.1696 3.805867 12.782933 3.805867 19.456v184.917334c0 4.906667 1.92 9.617067 5.333333 13.0816 3.413333 3.464533 8.046933 5.418667 12.8768 5.418666s9.454933-1.954133 12.868267-5.418666c3.413333-3.464533 5.333333-8.174933 5.333333-13.073067v-184.917333c0-23.296-9.1136-45.636267-25.326933-62.114134a85.794133 85.794133 0 0 0-61.141334-25.719466h-147.114666z m197.1712 157.354666v138.504534c0 6.6816-1.288533 13.294933-3.805867 19.456a50.9184 50.9184 0 0 1-10.8544 16.503466 50.013867 50.013867 0 0 1-16.238933 11.025067c-6.075733 2.56-12.586667 3.874133-19.157334 3.874133H352.708267a49.664 49.664 0 0 1-35.396267-14.8992 51.259733 51.259733 0 0 1-14.660267-35.959466V361.7536c0-13.482667 5.2736-26.4192 14.660267-35.959467a49.664 49.664 0 0 1 35.396267-14.890666H467.626667c4.829867 0 9.454933-1.9456 12.8768-5.418667 3.413333-3.464533 5.3248-8.1664 5.3248-13.073067 0-4.906667-1.911467-9.608533-5.3248-13.0816A18.065067 18.065067 0 0 0 467.626667 273.92H352.708267a85.794133 85.794133 0 0 0-61.141334 25.728 88.541867 88.541867 0 0 0-25.326933 62.1056v300.484267c0 23.296 9.1136 45.6448 25.326933 62.114133a85.794133 85.794133 0 0 0 61.141334 25.728h318.583466c22.929067 0 44.928-9.258667 61.141334-25.728a88.541867 88.541867 0 0 0 25.326933-62.114133v-138.496c0-4.906667-1.92-9.608533-5.333333-13.0816a18.065067 18.065067 0 0 0-12.868267-5.410134c-4.829867 0-9.463467 1.9456-12.8768 5.410134-3.413333 3.473067-5.333333 8.174933-5.333333 13.0816z" fill="#565656" p-id="3709"></path></svg>